<svg xmlns="http://www.w3.org/2000/svg" viewBox="0 0 900 900" width="900" height="900">
<defs>
<pattern id="d" width="18" height="18" patternUnits="userSpaceOnUse"><circle cx="9" cy="9" r="2.6" fill="#0e0e0e" opacity=".16"/></pattern>
</defs>
<rect width="900" height="900" fill="#f1ebe0"/>
<path d="M450.0,450.0 L1350.0,450.0 L1319.3,682.9Z" fill="#0e0e0e" opacity=".07"/>
<path d="M450.0,450.0 L1229.4,900.0 L1086.4,1086.4Z" fill="#0e0e0e" opacity=".07"/>
<path d="M450.0,450.0 L900.0,1229.4 L682.9,1319.3Z" fill="#0e0e0e" opacity=".07"/>
<path d="M450.0,450.0 L450.0,1350.0 L217.1,1319.3Z" fill="#0e0e0e" opacity=".07"/>
<path d="M450.0,450.0 L0.0,1229.4 L-186.4,1086.4Z" fill="#0e0e0e" opacity=".07"/>
<path d="M450.0,450.0 L-329.4,900.0 L-419.3,682.9Z" fill="#0e0e0e" opacity=".07"/>
<path d="M450.0,450.0 L-450.0,450.0 L-419.3,217.1Z" fill="#0e0e0e" opacity=".07"/>
<path d="M450.0,450.0 L-329.4,0.0 L-186.4,-186.4Z" fill="#0e0e0e" opacity=".07"/>
<path d="M450.0,450.0 L-0.0,-329.4 L217.1,-419.3Z" fill="#0e0e0e" opacity=".07"/>
<path d="M450.0,450.0 L450.0,-450.0 L682.9,-419.3Z" fill="#0e0e0e" opacity=".07"/>
<path d="M450.0,450.0 L900.0,-329.4 L1086.4,-186.4Z" fill="#0e0e0e" opacity=".07"/>
<path d="M450.0,450.0 L1229.4,-0.0 L1319.3,217.1Z" fill="#0e0e0e" opacity=".07"/>
<rect width="900" height="900" fill="url(#d)"/>
<g transform="translate(81.0,81.0) scale(1.845)" stroke="#0e0e0e" stroke-width="7" stroke-linejoin="round" stroke-linecap="round"><path d="M265 20 L230 150" fill="none" stroke="#0e0e0e" stroke-width="14"/><path d="M265 20 L230 150" fill="none" stroke="#f1ebe0" stroke-width="6"/>
<rect x="120" y="70" width="160" height="290" rx="10" fill="#f1ebe0"/>
<path d="M126 130 L274 130 L274 352 Q274 356 270 356 L130 356 Q126 356 126 352Z" fill="#d9412b" stroke="none"/>
<rect x="120" y="70" width="160" height="290" rx="10" fill="none"/>
<rect x="148" y="160" width="40" height="40" fill="#f1ebe0" opacity=".6" stroke-width="5" transform="rotate(12 168 180)"/>
<rect x="205" y="230" width="40" height="40" fill="#f1ebe0" opacity=".6" stroke-width="5" transform="rotate(-10 225 250)"/>
<g transform="translate(290,110) scale(1.3)"><path d="M0 -26 Q30 -30 26 0 Q20 30 0 40 Q-20 30 -26 0 Q-30 -30 0 -26Z" fill="#d9412b"/><path d="M-16 -26 L0 -40 L16 -26 L0 -30Z" fill="#5f8a3a" stroke-width="5"/><g fill="#f1ebe0" stroke="none"><circle cx="-10" cy="-4" r="3"/><circle cx="8" cy="0" r="3"/><circle cx="-2" cy="16" r="3"/><circle cx="12" cy="18" r="2.5"/></g></g><g transform="translate(170,300) scale(0.9)"><path d="M0 -26 Q30 -30 26 0 Q20 30 0 40 Q-20 30 -26 0 Q-30 -30 0 -26Z" fill="#d9412b"/><path d="M-16 -26 L0 -40 L16 -26 L0 -30Z" fill="#5f8a3a" stroke-width="5"/><g fill="#f1ebe0" stroke="none"><circle cx="-10" cy="-4" r="3"/><circle cx="8" cy="0" r="3"/><circle cx="-2" cy="16" r="3"/><circle cx="12" cy="18" r="2.5"/></g></g>
<path d="M100 95 Q80 60 120 50 Q130 85 100 95Z" fill="#5f8a3a" stroke-width="5"/></g>
</svg>