<svg xmlns="http://www.w3.org/2000/svg" viewBox="0 0 900 900" width="900" height="900">
<defs>
<pattern id="d" width="18" height="18" patternUnits="userSpaceOnUse"><circle cx="9" cy="9" r="2.6" fill="#f1ebe0" opacity=".16"/></pattern>
</defs>
<rect width="900" height="900" fill="#0e0e0e"/>
<path d="M450.0,450.0 L1350.0,450.0 L1319.3,682.9Z" fill="#f1ebe0" opacity=".07"/>
<path d="M450.0,450.0 L1229.4,900.0 L1086.4,1086.4Z" fill="#f1ebe0" opacity=".07"/>
<path d="M450.0,450.0 L900.0,1229.4 L682.9,1319.3Z" fill="#f1ebe0" opacity=".07"/>
<path d="M450.0,450.0 L450.0,1350.0 L217.1,1319.3Z" fill="#f1ebe0" opacity=".07"/>
<path d="M450.0,450.0 L0.0,1229.4 L-186.4,1086.4Z" fill="#f1ebe0" opacity=".07"/>
<path d="M450.0,450.0 L-329.4,900.0 L-419.3,682.9Z" fill="#f1ebe0" opacity=".07"/>
<path d="M450.0,450.0 L-450.0,450.0 L-419.3,217.1Z" fill="#f1ebe0" opacity=".07"/>
<path d="M450.0,450.0 L-329.4,0.0 L-186.4,-186.4Z" fill="#f1ebe0" opacity=".07"/>
<path d="M450.0,450.0 L-0.0,-329.4 L217.1,-419.3Z" fill="#f1ebe0" opacity=".07"/>
<path d="M450.0,450.0 L450.0,-450.0 L682.9,-419.3Z" fill="#f1ebe0" opacity=".07"/>
<path d="M450.0,450.0 L900.0,-329.4 L1086.4,-186.4Z" fill="#f1ebe0" opacity=".07"/>
<path d="M450.0,450.0 L1229.4,-0.0 L1319.3,217.1Z" fill="#f1ebe0" opacity=".07"/>
<rect width="900" height="900" fill="url(#d)"/>
<g transform="translate(81.0,81.0) scale(1.845)" stroke="#f1ebe0" stroke-width="7" stroke-linejoin="round" stroke-linecap="round"><path d="M70 90 Q200 250 330 90 Z" fill="#8e6fc1"/>
<path d="M78 90 Q200 60 322 90 Q260 110 200 104 Q140 110 78 90Z" fill="#f1ebe0"/>
<path d="M200 190 L200 330" fill="none"/><path d="M130 345 Q200 318 270 345 Z" fill="#f1ebe0"/>
<path d="M110 120 Q150 160 180 175" fill="none" stroke="#f1ebe0" stroke-width="6" opacity=".7"/>
<g fill="#f1ebe0" stroke-width="5"><path d="M330 40 l8 20 20 8 -20 8 -8 20 -8 -20 -20 -8 20 -8z"/><path d="M60 30 l6 14 14 6 -14 6 -6 14 -6 -14 -14 -6 14 -6z"/><path d="M350 160 l5 11 11 5 -11 5 -5 11 -5 -11 -11 -5 11 -5z"/></g></g>
</svg>