<svg xmlns="http://www.w3.org/2000/svg" viewBox="0 0 900 675" width="900" height="675">
<defs>
<pattern id="d" width="18" height="18" patternUnits="userSpaceOnUse"><circle cx="9" cy="9" r="2.6" fill="#0e0e0e" opacity=".16"/></pattern>
</defs>
<rect width="900" height="675" fill="#e8b923"/>
<path d="M450.0,337.5 L1350.0,337.5 L1319.3,570.4Z" fill="#0e0e0e" opacity=".07"/>
<path d="M450.0,337.5 L1229.4,787.5 L1086.4,973.9Z" fill="#0e0e0e" opacity=".07"/>
<path d="M450.0,337.5 L900.0,1116.9 L682.9,1206.8Z" fill="#0e0e0e" opacity=".07"/>
<path d="M450.0,337.5 L450.0,1237.5 L217.1,1206.8Z" fill="#0e0e0e" opacity=".07"/>
<path d="M450.0,337.5 L0.0,1116.9 L-186.4,973.9Z" fill="#0e0e0e" opacity=".07"/>
<path d="M450.0,337.5 L-329.4,787.5 L-419.3,570.4Z" fill="#0e0e0e" opacity=".07"/>
<path d="M450.0,337.5 L-450.0,337.5 L-419.3,104.6Z" fill="#0e0e0e" opacity=".07"/>
<path d="M450.0,337.5 L-329.4,-112.5 L-186.4,-298.9Z" fill="#0e0e0e" opacity=".07"/>
<path d="M450.0,337.5 L-0.0,-441.9 L217.1,-531.8Z" fill="#0e0e0e" opacity=".07"/>
<path d="M450.0,337.5 L450.0,-562.5 L682.9,-531.8Z" fill="#0e0e0e" opacity=".07"/>
<path d="M450.0,337.5 L900.0,-441.9 L1086.4,-298.9Z" fill="#0e0e0e" opacity=".07"/>
<path d="M450.0,337.5 L1229.4,-112.5 L1319.3,104.6Z" fill="#0e0e0e" opacity=".07"/>
<rect width="900" height="675" fill="url(#d)"/>
<g transform="translate(173.3,60.8) scale(1.384)" stroke="#0e0e0e" stroke-width="7" stroke-linejoin="round" stroke-linecap="round"><circle cx="180" cy="210" r="165" fill="#0e0e0e"/>
<g fill="none" stroke="#f1ebe0" stroke-width="2" opacity=".35"><circle cx="180" cy="210" r="145"/><circle cx="180" cy="210" r="125"/><circle cx="180" cy="210" r="105"/><circle cx="180" cy="210" r="85"/></g>
<path d="M80 110 A140 140 0 0 1 150 75" fill="none" stroke="#f1ebe0" stroke-width="8" opacity=".6"/>
<circle cx="180" cy="210" r="55" fill="#d9412b"/><circle cx="180" cy="210" r="8" fill="#f1ebe0"/>
<path d="M150 190 Q180 175 210 190" fill="none" stroke="#f1ebe0" stroke-width="5"/>
<circle cx="345" cy="60" r="26" fill="#f1ebe0"/><path d="M345 60 L330 250 L270 300" fill="none" stroke="#f1ebe0" stroke-width="12"/><path d="M345 60 L330 250 L270 300" fill="none" stroke-width="4"/>
<rect x="250" y="290" width="36" height="22" fill="#f1ebe0" transform="rotate(-40 268 301)"/></g>
</svg>